REM DIRINDEX 1\2,1\3,1\4
REM DIRNAME folder01,folder02,folder03,folder04
TITLE ""
FILE "CD1-18.mp3" MP3
  TRACK 01 AUDIO
    TITLE "2:cjc031_1096"
    INDEX 01 00:00:00
  TRACK 02 AUDIO
    TITLE "3:cjc031_1097"
    INDEX 01 00:01:21
  TRACK 03 AUDIO
    TITLE "2:cjc031_1098"
    INDEX 01 00:02:69
  TRACK 04 AUDIO
    TITLE "3:cjc031_1099"
    INDEX 01 00:04:21
  TRACK 05 AUDIO
    TITLE "2:cjc031_1100"
    INDEX 01 00:05:42
  TRACK 06 AUDIO
    TITLE "3:cjc031_1101"
    INDEX 01 00:06:59
  TRACK 07 AUDIO
    TITLE "2:cjc031_1102"
    INDEX 01 00:08:13
  TRACK 08 AUDIO
    TITLE "3:cjc031_1103"
    INDEX 01 00:09:36
  TRACK 09 AUDIO
    TITLE "2:cjc031_1104"
    INDEX 01 00:11:13
  TRACK 10 AUDIO
    TITLE "3:cjc031_1105"
    INDEX 01 00:12:26
  TRACK 11 AUDIO
    TITLE "2:cjc031_1106"
    INDEX 01 00:13:45
  TRACK 12 AUDIO
    TITLE "3:cjc031_1107"
    INDEX 01 00:14:62
  TRACK 13 AUDIO
    TITLE "2:cjc031_1108"
    INDEX 01 00:16:08
  TRACK 14 AUDIO
    TITLE "3:cjc031_1109"
    INDEX 01 00:17:23
  TRACK 15 AUDIO
    TITLE "2:cjc031_1110"
    INDEX 01 00:18:48
  TRACK 16 AUDIO
    TITLE "3:cjc031_1111"
    INDEX 01 00:20:04
  TRACK 17 AUDIO
    TITLE "2:cjc031_1112"
    INDEX 01 00:21:70
  TRACK 18 AUDIO
    TITLE "3:cjc031_1113"
    INDEX 01 00:23:24
  TRACK 19 AUDIO
    TITLE "2:cjc031_1114"
    INDEX 01 00:24:57
  TRACK 20 AUDIO
    TITLE "3:cjc031_1115"
    INDEX 01 00:26:03
  TRACK 21 AUDIO
    TITLE "2:cjc031_1116"
    INDEX 01 00:27:28
  TRACK 22 AUDIO
    TITLE "3:cjc031_1117"
    INDEX 01 00:28:72
  TRACK 23 AUDIO
    TITLE "2:cjc031_1118"
    INDEX 01 00:30:44
  TRACK 24 AUDIO
    TITLE "3:cjc031_1119"
    INDEX 01 00:31:69
  TRACK 25 AUDIO
    TITLE "2:cjc031_1120"
    INDEX 01 00:33:19
  TRACK 26 AUDIO
    TITLE "3:cjc031_1121"
    INDEX 01 00:34:53
  TRACK 27 AUDIO
    TITLE "2:cjc031_1122"
    INDEX 01 00:36:17
  TRACK 28 AUDIO
    TITLE "3:cjc031_1123"
    INDEX 01 00:37:28
  TRACK 29 AUDIO
    TITLE "2:cjc031_1124"
    INDEX 01 00:38:65
  TRACK 30 AUDIO
    TITLE "3:cjc031_1125"
    INDEX 01 00:40:24
  TRACK 31 AUDIO
    TITLE "2:cjc031_1126"
    INDEX 01 00:41:57
  TRACK 32 AUDIO
    TITLE "3:cjc031_1127"
    INDEX 01 00:43:17
  TRACK 33 AUDIO
    TITLE "2:cjc031_1128"
    INDEX 01 00:44:71
  TRACK 34 AUDIO
    TITLE "3:cjc031_1129"
    INDEX 01 00:46:21
  TRACK 35 AUDIO
    TITLE "2:cjc031_1130"
    INDEX 01 00:47:70
  TRACK 36 AUDIO
    TITLE "3:cjc031_1131"
    INDEX 01 00:49:14
  TRACK 37 AUDIO
    TITLE "2:cjc031_1132"
    INDEX 01 00:50:29
  TRACK 38 AUDIO
    TITLE "3:cjc031_1133"
    INDEX 01 00:51:48
  TRACK 39 AUDIO
    TITLE "2:cjc031_1134"
    INDEX 01 00:53:25
  TRACK 40 AUDIO
    TITLE "3:cjc031_1135"
    INDEX 01 00:54:42
  TRACK 41 AUDIO
    TITLE "2:cjc031_1136"
    INDEX 01 00:56:06
  TRACK 42 AUDIO
    TITLE "3:cjc031_1137"
    INDEX 01 00:57:37
  TRACK 43 AUDIO
    TITLE "2:cjc031_1138"
    INDEX 01 00:59:08
  TRACK 44 AUDIO
    TITLE "3:cjc031_1139"
    INDEX 01 01:00:31
  TRACK 45 AUDIO
    TITLE "2:cjc031_1140"
    INDEX 01 01:02:05
  TRACK 46 AUDIO
    TITLE "3:cjc031_1141"
    INDEX 01 01:03:22
  TRACK 47 AUDIO
    TITLE "2:cjc031_1142"
    INDEX 01 01:05:09
  TRACK 48 AUDIO
    TITLE "3:cjc031_1143"
    INDEX 01 01:06:42
  TRACK 49 AUDIO
    TITLE "2:cjc031_1144"
    INDEX 01 01:07:74
  TRACK 50 AUDIO
    TITLE "3:cjc031_1145"
    INDEX 01 01:09:18
  TRACK 51 AUDIO
    TITLE "2:cjc031_1146"
    INDEX 01 01:10:53
  TRACK 52 AUDIO
    TITLE "3:cjc031_1147"
    INDEX 01 01:12:21
  TRACK 53 AUDIO
    TITLE "2:cjc031_1148"
    INDEX 01 01:13:47
  TRACK 54 AUDIO
    TITLE "3:cjc031_1149"
    INDEX 01 01:14:66
  TRACK 55 AUDIO
    TITLE "2:cjc031_1150"
    INDEX 01 01:16:56
  TRACK 56 AUDIO
    TITLE "3:cjc031_1151"
    INDEX 01 01:18:02
  TRACK 57 AUDIO
    TITLE "2:cjc031_1152"
    INDEX 01 01:19:46
  TRACK 58 AUDIO
    TITLE "3:cjc031_1153"
    INDEX 01 01:20:71
  TRACK 59 AUDIO
    TITLE "2:cjc031_1154"
    INDEX 01 01:22:42
  TRACK 60 AUDIO
    TITLE "3:cjc031_1155"
    INDEX 01 01:24:51
  TRACK 61 AUDIO
    TITLE "2:cjc031_1156"
    INDEX 01 01:26:30
  TRACK 62 AUDIO
    TITLE "3:cjc031_1157"
    INDEX 01 01:27:50
  TRACK 63 AUDIO
    TITLE "2:cjc031_1158"
    INDEX 01 01:29:27
  TRACK 64 AUDIO
    TITLE "3:cjc031_1159"
    INDEX 01 01:30:64
  TRACK 65 AUDIO
    TITLE "2:cjc031_1160"
    INDEX 01 01:33:07
  TRACK 66 AUDIO
    TITLE "3:cjc031_1161"
    INDEX 01 01:34:32
  TRACK 67 AUDIO
    TITLE "2:cjc031_1162"
    INDEX 01 01:35:71
  TRACK 68 AUDIO
    TITLE "3:cjc031_1163"
    INDEX 01 01:37:42
  TRACK 69 AUDIO
    TITLE "2:cjc031_1164"
    INDEX 01 01:39:21
  TRACK 70 AUDIO
    TITLE "3:cjc031_1165"
    INDEX 01 01:40:33
  TRACK 71 AUDIO
    TITLE "2:cjc031_1166"
    INDEX 01 01:41:56
  TRACK 72 AUDIO
    TITLE "3:cjc031_1167"
    INDEX 01 01:42:73
  TRACK 73 AUDIO
    TITLE "2:cjc031_1168"
    INDEX 01 01:44:26
  TRACK 74 AUDIO
    TITLE "3:cjc031_1169"
    INDEX 01 01:45:57
  TRACK 75 AUDIO
    TITLE "2:cjc031_1170"
    INDEX 01 01:46:66
  TRACK 76 AUDIO
    TITLE "3:cjc031_1171"
    INDEX 01 01:48:20
  TRACK 77 AUDIO
    TITLE "2:cjc031_1172"
    INDEX 01 01:49:41
  TRACK 78 AUDIO
    TITLE "3:cjc031_1173"
    INDEX 01 01:51:05
  TRACK 79 AUDIO
    TITLE "2:cjc031_1174"
    INDEX 01 01:52:44
  TRACK 80 AUDIO
    TITLE "3:cjc031_1175"
    INDEX 01 01:54:09
  TRACK 81 AUDIO
    TITLE "0:"
    INDEX 01 01:55:54
